<mxfile host="65bd71144e">
    <diagram id="Mq88om0MZ4iqaWooZR1S" name="PÃ¡gina-1">
        <mxGraphModel dx="1184" dy="620" grid="1" gridSize="10" guides="1" tooltips="1" connect="1" arrows="1" fold="1" page="1" pageScale="1" pageWidth="827" pageHeight="1169" math="0" shadow="0">
            <root>
                <mxCell id="0"/>
                <mxCell id="1" parent="0"/>
                <mxCell id="88" style="edgeStyle=none;html=1;exitX=0;exitY=0;exitDx=0;exitDy=0;entryX=0.5;entryY=1;entryDx=0;entryDy=0;" edge="1" parent="1" source="89" target="100">
                    <mxGeometry relative="1" as="geometry"/>
                </mxCell>
                <mxCell id="89" value="Estudiante" style="rounded=0;whiteSpace=wrap;html=1;" vertex="1" parent="1">
                    <mxGeometry x="210" y="225" width="120" height="60" as="geometry"/>
                </mxCell>
                <mxCell id="90" value="Curso" style="rounded=0;whiteSpace=wrap;html=1;" vertex="1" parent="1">
                    <mxGeometry x="464" y="225" width="120" height="60" as="geometry"/>
                </mxCell>
                <mxCell id="91" value="Profesor" style="rounded=0;whiteSpace=wrap;html=1;" vertex="1" parent="1">
                    <mxGeometry x="464" y="511" width="120" height="60" as="geometry"/>
                </mxCell>
                <mxCell id="92" value="Departamento" style="rounded=0;whiteSpace=wrap;html=1;" vertex="1" parent="1">
                    <mxGeometry x="216" y="511" width="120" height="60" as="geometry"/>
                </mxCell>
                <mxCell id="93" value="" style="endArrow=none;html=1;exitX=1.005;exitY=0.52;exitDx=0;exitDy=0;exitPerimeter=0;entryX=0;entryY=0.5;entryDx=0;entryDy=0;" edge="1" parent="1" source="89" target="90">
                    <mxGeometry width="50" height="50" relative="1" as="geometry">
                        <mxPoint x="430" y="255" as="sourcePoint"/>
                        <mxPoint x="480" y="205" as="targetPoint"/>
                    </mxGeometry>
                </mxCell>
                <mxCell id="94" value="" style="endArrow=none;html=1;exitX=0.5;exitY=1;exitDx=0;exitDy=0;entryX=0.5;entryY=0;entryDx=0;entryDy=0;startArrow=none;" edge="1" parent="1" source="125" target="91">
                    <mxGeometry width="50" height="50" relative="1" as="geometry">
                        <mxPoint x="520" y="491.0999999999999" as="sourcePoint"/>
                        <mxPoint x="719.4" y="441" as="targetPoint"/>
                    </mxGeometry>
                </mxCell>
                <mxCell id="95" value="" style="endArrow=none;html=1;exitX=1;exitY=0.5;exitDx=0;exitDy=0;entryX=0;entryY=0.5;entryDx=0;entryDy=0;" edge="1" parent="1" source="92" target="91">
                    <mxGeometry width="50" height="50" relative="1" as="geometry">
                        <mxPoint x="530" y="397" as="sourcePoint"/>
                        <mxPoint x="530" y="487" as="targetPoint"/>
                    </mxGeometry>
                </mxCell>
                <mxCell id="96" value="1:N" style="text;html=1;align=center;verticalAlign=middle;resizable=0;points=[];autosize=1;strokeColor=none;fillColor=none;" vertex="1" parent="1">
                    <mxGeometry x="380" y="185" width="40" height="30" as="geometry"/>
                </mxCell>
                <mxCell id="97" value="&lt;span style=&quot;color: rgba(0, 0, 0, 0); font-family: monospace; font-size: 0px; text-align: start;&quot;&gt;%3CmxGraphModel%3E%3Croot%3E%3CmxCell%20id%3D%220%22%2F%3E%3CmxCell%20id%3D%221%22%20parent%3D%220%22%2F%3E%3CmxCell%20id%3D%222%22%20value%3D%22N%3A1%22%20style%3D%22text%3Bhtml%3D1%3Balign%3Dcenter%3BverticalAlign%3Dmiddle%3Bresizable%3D0%3Bpoints%3D%5B%5D%3Bautosize%3D1%3BstrokeColor%3Dnone%3BfillColor%3Dnone%3B%22%20vertex%3D%221%22%20parent%3D%221%22%3E%3CmxGeometry%20x%3D%22330%22%20y%3D%22230%22%20width%3D%2240%22%20height%3D%2230%22%20as%3D%22geometry%22%2F%3E%3C%2FmxCell%3E%3C%2Froot%3E%3C%2FmxGraphModel%3E&lt;/span&gt;" style="text;html=1;align=center;verticalAlign=middle;resizable=0;points=[];autosize=1;strokeColor=none;fillColor=none;" vertex="1" parent="1">
                    <mxGeometry x="540" y="310" width="20" height="30" as="geometry"/>
                </mxCell>
                <mxCell id="98" value="N:N" style="text;html=1;align=center;verticalAlign=middle;resizable=0;points=[];autosize=1;strokeColor=none;fillColor=none;rotation=90;" vertex="1" parent="1">
                    <mxGeometry x="563.52" y="400" width="40" height="30" as="geometry"/>
                </mxCell>
                <mxCell id="99" value="N:1" style="text;html=1;align=center;verticalAlign=middle;resizable=0;points=[];autosize=1;strokeColor=none;fillColor=none;rotation=0;" vertex="1" parent="1">
                    <mxGeometry x="376" y="587" width="40" height="30" as="geometry"/>
                </mxCell>
                <mxCell id="100" value="StudentID" style="ellipse;whiteSpace=wrap;html=1;fontStyle=0" vertex="1" parent="1">
                    <mxGeometry x="140" y="155" width="80" height="40" as="geometry"/>
                </mxCell>
                <mxCell id="101" style="edgeStyle=none;html=1;exitX=0.5;exitY=0;exitDx=0;exitDy=0;entryX=0.5;entryY=1;entryDx=0;entryDy=0;" edge="1" parent="1" source="89" target="102">
                    <mxGeometry relative="1" as="geometry">
                        <mxPoint x="290" y="215" as="sourcePoint"/>
                    </mxGeometry>
                </mxCell>
                <mxCell id="102" value="FirstName" style="ellipse;whiteSpace=wrap;html=1;" vertex="1" parent="1">
                    <mxGeometry x="220" y="145" width="80" height="40" as="geometry"/>
                </mxCell>
                <mxCell id="103" style="edgeStyle=none;html=1;exitX=0;exitY=0.5;exitDx=0;exitDy=0;entryX=1;entryY=0.5;entryDx=0;entryDy=0;" edge="1" parent="1" source="89" target="104">
                    <mxGeometry relative="1" as="geometry">
                        <mxPoint x="150" y="310" as="sourcePoint"/>
                    </mxGeometry>
                </mxCell>
                <mxCell id="104" value="LastName" style="ellipse;whiteSpace=wrap;html=1;" vertex="1" parent="1">
                    <mxGeometry x="100" y="230" width="80" height="45" as="geometry"/>
                </mxCell>
                <mxCell id="105" style="edgeStyle=none;html=1;exitX=0.25;exitY=1;exitDx=0;exitDy=0;entryX=0.986;entryY=0.37;entryDx=0;entryDy=0;entryPerimeter=0;" edge="1" parent="1" target="106">
                    <mxGeometry relative="1" as="geometry">
                        <mxPoint x="210" y="285" as="sourcePoint"/>
                    </mxGeometry>
                </mxCell>
                <mxCell id="106" value="DateOfBirth" style="ellipse;whiteSpace=wrap;html=1;" vertex="1" parent="1">
                    <mxGeometry x="100" y="285" width="80" height="45" as="geometry"/>
                </mxCell>
                <mxCell id="107" style="edgeStyle=none;html=1;exitX=0.25;exitY=0;exitDx=0;exitDy=0;entryX=0.5;entryY=1;entryDx=0;entryDy=0;" edge="1" parent="1" source="90" target="108">
                    <mxGeometry relative="1" as="geometry">
                        <mxPoint x="540" y="167.5" as="sourcePoint"/>
                    </mxGeometry>
                </mxCell>
                <mxCell id="108" value="CourseID" style="ellipse;whiteSpace=wrap;html=1;fontStyle=0" vertex="1" parent="1">
                    <mxGeometry x="430" y="142.5" width="90" height="45" as="geometry"/>
                </mxCell>
                <mxCell id="109" style="edgeStyle=none;html=1;exitX=0.75;exitY=0;exitDx=0;exitDy=0;entryX=0.5;entryY=1;entryDx=0;entryDy=0;" edge="1" parent="1" source="90" target="110">
                    <mxGeometry relative="1" as="geometry">
                        <mxPoint x="584" y="216.25" as="sourcePoint"/>
                    </mxGeometry>
                </mxCell>
                <mxCell id="110" value="CourseName" style="ellipse;whiteSpace=wrap;html=1;" vertex="1" parent="1">
                    <mxGeometry x="530" y="140" width="90" height="45" as="geometry"/>
                </mxCell>
                <mxCell id="111" style="edgeStyle=none;html=1;exitX=1.008;exitY=0.4;exitDx=0;exitDy=0;entryX=0.089;entryY=0.803;entryDx=0;entryDy=0;exitPerimeter=0;entryPerimeter=0;" edge="1" parent="1" source="90" target="112">
                    <mxGeometry relative="1" as="geometry">
                        <mxPoint x="624" y="280" as="sourcePoint"/>
                    </mxGeometry>
                </mxCell>
                <mxCell id="112" value="Credits" style="ellipse;whiteSpace=wrap;html=1;" vertex="1" parent="1">
                    <mxGeometry x="600" y="195" width="90" height="50" as="geometry"/>
                </mxCell>
                <mxCell id="113" style="edgeStyle=none;html=1;exitX=1.004;exitY=0.365;exitDx=0;exitDy=0;entryX=0.089;entryY=0.803;entryDx=0;entryDy=0;exitPerimeter=0;entryPerimeter=0;" edge="1" parent="1" source="91" target="114">
                    <mxGeometry relative="1" as="geometry">
                        <mxPoint x="588.48" y="531" as="sourcePoint"/>
                    </mxGeometry>
                </mxCell>
                <mxCell id="114" value="ProfesorID" style="ellipse;whiteSpace=wrap;html=1;fontStyle=0" vertex="1" parent="1">
                    <mxGeometry x="603.52" y="477" width="90" height="50" as="geometry"/>
                </mxCell>
                <mxCell id="115" style="edgeStyle=none;html=1;exitX=1.002;exitY=0.622;exitDx=0;exitDy=0;entryX=0.055;entryY=0.258;entryDx=0;entryDy=0;exitPerimeter=0;entryPerimeter=0;" edge="1" parent="1" source="91" target="116">
                    <mxGeometry relative="1" as="geometry">
                        <mxPoint x="584.48" y="606.9" as="sourcePoint"/>
                    </mxGeometry>
                </mxCell>
                <mxCell id="116" value="Nombre" style="ellipse;whiteSpace=wrap;html=1;" vertex="1" parent="1">
                    <mxGeometry x="606" y="551" width="91.52" height="50" as="geometry"/>
                </mxCell>
                <mxCell id="117" style="edgeStyle=none;html=1;exitX=0.75;exitY=1;exitDx=0;exitDy=0;" edge="1" parent="1" source="91" target="118">
                    <mxGeometry relative="1" as="geometry">
                        <mxPoint x="516.0000000000001" y="601" as="sourcePoint"/>
                    </mxGeometry>
                </mxCell>
                <mxCell id="118" value="Apellido" style="ellipse;whiteSpace=wrap;html=1;" vertex="1" parent="1">
                    <mxGeometry x="541.76" y="603.6800000000001" width="91.52" height="50" as="geometry"/>
                </mxCell>
                <mxCell id="119" style="edgeStyle=none;html=1;exitX=0.614;exitY=1.036;exitDx=0;exitDy=0;exitPerimeter=0;" edge="1" parent="1" source="92" target="120">
                    <mxGeometry relative="1" as="geometry">
                        <mxPoint x="242.72000000000014" y="553.3399999999999" as="sourcePoint"/>
                    </mxGeometry>
                </mxCell>
                <mxCell id="120" value="DepartmentName" style="ellipse;whiteSpace=wrap;html=1;" vertex="1" parent="1">
                    <mxGeometry x="234.48" y="632" width="111.52" height="50" as="geometry"/>
                </mxCell>
                <mxCell id="121" style="edgeStyle=none;html=1;exitX=0;exitY=1;exitDx=0;exitDy=0;" edge="1" parent="1" source="92" target="122">
                    <mxGeometry relative="1" as="geometry">
                        <mxPoint x="139.68000000000006" y="522.8199999999999" as="sourcePoint"/>
                    </mxGeometry>
                </mxCell>
                <mxCell id="122" value="DepartmentID" style="ellipse;whiteSpace=wrap;html=1;fontStyle=0" vertex="1" parent="1">
                    <mxGeometry x="80.23999999999998" y="617" width="111.52" height="50" as="geometry"/>
                </mxCell>
                <mxCell id="123" value="Matricula" style="rhombus;whiteSpace=wrap;html=1;fontSize=12;fontColor=default;" vertex="1" parent="1">
                    <mxGeometry x="360" y="215.00000000000003" width="80" height="80" as="geometry"/>
                </mxCell>
                <mxCell id="124" value="" style="endArrow=none;html=1;exitX=0.5;exitY=1;exitDx=0;exitDy=0;entryX=0.5;entryY=0;entryDx=0;entryDy=0;" edge="1" parent="1" source="90" target="125">
                    <mxGeometry width="50" height="50" relative="1" as="geometry">
                        <mxPoint x="523.9999999999999" y="285" as="sourcePoint"/>
                        <mxPoint x="523.9999999999999" y="375" as="targetPoint"/>
                    </mxGeometry>
                </mxCell>
                <mxCell id="125" value="Imparte" style="rhombus;whiteSpace=wrap;html=1;fontSize=12;fontColor=default;" vertex="1" parent="1">
                    <mxGeometry x="484" y="375" width="80" height="80" as="geometry"/>
                </mxCell>
                <mxCell id="126" value="Asociado" style="rhombus;whiteSpace=wrap;html=1;fontSize=12;fontColor=default;" vertex="1" parent="1">
                    <mxGeometry x="356" y="501" width="80" height="80" as="geometry"/>
                </mxCell>
                <mxCell id="127" value="Ofrecido" style="rhombus;whiteSpace=wrap;html=1;fontSize=12;fontColor=default;" vertex="1" parent="1">
                    <mxGeometry x="236" y="365" width="80" height="80" as="geometry"/>
                </mxCell>
                <mxCell id="128" value="" style="endArrow=none;html=1;exitX=0.25;exitY=1;exitDx=0;exitDy=0;entryX=0.5;entryY=0;entryDx=0;entryDy=0;" edge="1" parent="1" source="90" target="127">
                    <mxGeometry width="50" height="50" relative="1" as="geometry">
                        <mxPoint x="534" y="295" as="sourcePoint"/>
                        <mxPoint x="534" y="385" as="targetPoint"/>
                    </mxGeometry>
                </mxCell>
                <mxCell id="129" value="" style="endArrow=none;html=1;exitX=0.5;exitY=1;exitDx=0;exitDy=0;entryX=0.5;entryY=0;entryDx=0;entryDy=0;" edge="1" parent="1" source="127" target="92">
                    <mxGeometry width="50" height="50" relative="1" as="geometry">
                        <mxPoint x="504" y="295" as="sourcePoint"/>
                        <mxPoint x="286" y="375" as="targetPoint"/>
                    </mxGeometry>
                </mxCell>
                <mxCell id="130" value="1:N" style="text;html=1;align=center;verticalAlign=middle;resizable=0;points=[];autosize=1;strokeColor=none;fillColor=none;rotation=90;" vertex="1" parent="1">
                    <mxGeometry x="320" y="390" width="40" height="30" as="geometry"/>
                </mxCell>
            </root>
        </mxGraphModel>
    </diagram>
</mxfile>